<?xml version="1.0" encoding="UTF-8"?>
<svg width="2400px" height="1800px" viewBox="0 0 2400 1800" version="1.1" xmlns="http://www.w3.org/2000/svg" xmlns:xlink="http://www.w3.org/1999/xlink">
    <!-- Generator: Sketch 50.2 (55047) - http://www.bohemiancoding.com/sketch -->
    <title>Slice</title>
    <desc>Created with Sketch.</desc>
    <defs></defs>
    <g id="Page-1" stroke="none" stroke-width="1" fill="none" fill-rule="evenodd">
        <g id="Group" transform="translate(148.000000, 737.000000)" fill="#696566" fill-rule="nonzero">
            <g id="g166" transform="translate(1061.000000, 163.000000) scale(1, -1) translate(-1061.000000, -163.000000) translate(0.500000, 0.500000)">
                <g id="g172" transform="translate(814.888462, 4.110496)">
                    <path d="M96.4431705,20.690637 L3.68647006,278.986498 C2.50072012,282.557864 0.736211283,287.272632 0.736211283,291.408641 C0.736211283,302.602685 10.1939786,313.232086 23.7454065,313.232086 C35.5746737,313.232086 43.2820483,305.552943 46.811066,294.358899 L123.673071,71.7908128 L201.085603,294.980006 C204.61462,305.567059 211.715004,313.246202 223.473691,313.246202 L225.873423,313.246202 C238.309681,313.246202 245.988823,305.567059 249.517841,294.980006 L326.295149,71.7908128 L404.371136,295.530533 C407.321395,305.030649 413.77244,313.246202 426.222814,313.246202 C439.209599,313.246202 448.681482,303.252024 448.681482,292.001516 C448.681482,287.879623 446.888741,283.178971 445.731224,279.579373 L352.381648,20.690637 C347.610416,7.16744123 338.194997,0.0670576801 327.537364,0.0670576801 L325.772855,0.0670576801 C313.943588,0.0670576801 305.064579,7.16744123 300.900338,20.690637 L224.715905,240.18142 L147.868016,20.690637 C143.732007,7.16744123 134.838883,0.0670576801 123.051964,0.0670576801 L121.80975,0.0670576801 C110.615705,0.0670576801 101.200286,7.16744123 96.4431705,20.690637" id="path174"></path>
                </g>
                <g id="g176" transform="translate(1587.468884, 4.336897)">
                    <path d="M0.00841778997,290.490552 C0.00841778997,302.955042 10.0590601,313.59856 22.4670862,313.59856 C35.5526838,313.59856 45.575094,303.533801 45.575094,290.490552 L45.575094,238.077582 C68.0478785,288.980132 117.891724,313.005685 150.923329,313.005685 C164.601802,313.005685 173.48081,302.955042 173.48081,289.940025 C173.48081,277.489651 165.237025,268.652991 153.294829,266.874366 C94.0779128,259.773982 45.58921,215.350708 45.58921,127.125266 L45.58921,23.3297983 C45.58921,10.89354 36.1314427,0.264138768 23.1164255,0.264138768 C10.0872923,0.264138768 0.0225338607,10.3712454 0.0225338607,23.3297983 L0.00841778997,290.490552 Z" id="path178"></path>
                </g>
                <g id="g180" transform="translate(1757.487994, 1.290001)">
                    <path d="M149.718309,0.431356009 C67.3228045,0.431356009 0.0456116232,64.334808 0.0456116232,158.051401 L0.0456116232,159.265383 C0.0456116232,246.545048 60.9705727,316.857196 143.916604,316.857196 C232.607876,316.857196 283.115177,243.679486 283.115177,163.37316 C283.115177,151.035714 273.163347,142.21317 262.209276,142.21317 L45.3581985,142.21317 C51.6821982,76.6440216 97.4747315,39.7446129 150.904059,39.7446129 C188.043441,39.7446129 215.216877,54.3970942 237.294412,74.9077449 C240.781081,77.8015394 244.832393,80.1448072 250.083572,80.1448072 C261.065875,80.1448072 269.803722,71.3504951 269.803722,60.7634421 C269.803722,55.5122638 267.488687,50.2187373 262.788035,46.167425 C234.400617,18.6552033 200.719672,0.431356009 149.718309,0.431356009 Z M238.451929,175.625909 C233.793626,230.749165 202.455949,278.743806 142.702622,278.743806 C90.5013926,278.743806 51.0610911,234.82871 45.3299664,175.625909 L238.451929,175.625909 Z" id="path182"></path>
                </g>
                <g id="g184" transform="translate(1264.366142, 1.323932)">
                    <path d="M0.00841778997,95.2574206 L0.00841778997,96.4431705 C0.00841778997,160.755989 53.1413078,195.029808 130.426795,195.029808 C169.401266,195.029808 197.125229,189.722166 224.326897,182.000675 L224.326897,192.672424 C224.326897,247.513359 190.589488,275.886661 133.405286,275.886661 C102.702832,275.886661 84.8318865,271.976509 62.359102,261.968215 C59.4511914,260.782465 56.4727005,260.175474 54.171781,260.175474 C43.5423798,260.175474 34.0563803,269.054483 34.0563803,279.655652 C34.0563803,289.071071 38.1641569,294.901008 46.4785225,298.585303 C76.531637,311.628552 99.1879304,315.962186 138.120053,315.962186 C181.174069,315.962186 214.233907,304.782258 236.621995,282.337705 C257.316154,261.685894 267.945555,232.183306 267.945555,193.208835 L267.945555,24.8323439 C267.945555,11.8879071 258.501904,2.41602369 246.037414,2.41602369 C233.107093,2.41602369 224.341013,11.8737911 224.341013,23.6607101 L224.341013,52.7680478 C203.053979,24.9735046 167.608525,0.228032738 114.009805,0.228032738 C57.3196648,0.27038095 0.00841778997,32.6949953 0.00841778997,95.2574206 M224.905656,118.873607 L224.905656,148.390311 C202.432871,154.869587 172.29506,161.377096 135.141562,161.377096 C77.9714762,161.377096 46.0550404,136.561043 46.0550404,98.2359115 L46.0550404,97.0642776 C46.0550404,58.7109136 81.4299135,36.2804773 122.790001,36.2804773 C178.830801,36.2804773 224.905656,70.5260647 224.905656,118.873607" id="path186"></path>
                </g>
                <g id="g188" transform="translate(0.631701, 0.520948)">
                    <path d="M83.9216719,297.666126 C73.9274939,319.574268 49.2243702,329.497866 26.1587107,319.249599 C3.06481904,308.987215 -5.43305551,283.380663 4.99872073,261.458405 L101.849082,50.945443 C117.080322,17.9561858 133.130294,0.663999224 163.253989,0.663999224 C195.43863,0.663999224 209.470005,19.4948375 224.687129,50.945443 C224.687129,50.945443 309.157696,234.877844 310.00466,236.79763 C310.86574,238.745647 313.576026,244.688513 322.172713,244.632049 C329.442489,244.589701 335.554748,238.787996 335.554748,230.995925 L335.554748,51.1289519 C335.554748,23.4049891 350.927149,0.663999224 380.514433,0.663999224 C410.073485,0.663999224 426.052877,23.4049891 426.052877,51.1289519 L426.052877,198.317221 C426.052877,226.704639 446.394135,245.126111 474.118098,245.126111 C501.842061,245.126111 520.291765,226.041184 520.291765,198.317221 L520.291765,51.1289519 C520.291765,23.4049891 535.72063,0.663999224 565.25145,0.663999224 C594.810502,0.663999224 610.874591,23.4049891 610.874591,51.1289519 L610.874591,198.317221 C610.874591,226.704639 631.131152,245.126111 658.869231,245.126111 C686.550846,245.126111 705.07113,226.041184 705.07113,198.317221 L705.07113,51.1289519 C705.07113,23.4049891 720.485879,0.663999224 750.044931,0.663999224 C779.589867,0.663999224 795.625724,23.4049891 795.625724,51.1289519 L795.625724,218.644363 C795.625724,280.204547 746.120664,323.329143 686.550846,323.329143 C627.051608,323.329143 589.785181,282.166681 589.785181,282.166681 C569.980334,307.843813 542.679853,323.272679 496.477954,323.272679 C447.721046,323.272679 405.048164,282.166681 405.048164,282.166681 C385.229201,307.843813 351.491792,323.272679 323.556088,323.272679 C280.346796,323.272679 246.030628,304.272448 225.096495,256.404852 L163.253989,110.62819 L83.9216719,297.666126 Z" id="path190"></path>
                </g>
                <g id="g192" transform="translate(2044.264932, 241.953259)">
                    <path d="M0.0225338607,37.9958518 L0.0225338607,38.2499411 C0.0225338607,58.8452882 16.7359616,76.1939391 37.7406747,76.1939391 C59.0418254,76.1939391 75.529396,59.0287971 75.529396,38.4052179 L75.529396,38.2499411 C75.529396,17.5840136 58.8583165,0.235362725 37.7406747,0.235362725 C16.4395241,0.235362725 0.0225338607,17.3440404 0.0225338607,37.9958518 M68.2737356,38.2499411 L68.2737356,38.3487536 C68.2737356,55.2880384 55.1881381,69.1782519 37.7406747,69.1782519 C20.4484881,69.1782519 7.16526563,55.0480652 7.16526563,38.2499411 L7.16526563,38.0523161 C7.16526563,21.1553795 20.2932114,7.26516593 37.7406747,7.26516593 C54.976397,7.26516593 68.2737356,21.3671205 68.2737356,38.2499411" id="path194"></path>
                </g>
                <g id="g196" transform="translate(2067.528216, 261.925867)">
                    <path d="M0.0366499313,33.2121356 C0.0366499313,35.4565908 1.82939091,37.2493318 4.10207829,37.2493318 L16.6936133,37.2493318 C21.4366131,37.2493318 25.0926754,35.9083051 27.3653628,33.508573 C29.4404252,31.4899749 30.5697108,28.5679483 30.5697108,25.1800913 L30.5697108,25.0671628 C30.5697108,19.3078059 27.6618003,15.7929043 23.2717023,13.9436991 L28.8334341,7.16798514 C29.609818,6.15162805 30.1321126,5.31877988 30.1321126,4.07656566 C30.1321126,1.84622649 28.2405592,0.378155137 26.3207735,0.378155137 C24.5280326,0.378155137 23.3140505,1.29569973 22.3682738,2.45321753 L14.5338545,12.3626991 L8.11104236,12.3626991 L8.11104236,4.40123528 C8.11104236,2.15678004 6.37476567,0.392271208 4.11619436,0.392271208 C1.84350698,0.392271208 0.050766002,2.17089611 0.050766002,4.40123528 L0.050766002,33.2121356 L0.0366499313,33.2121356 Z M16.2418991,19.4913148 C20.1661667,19.4913148 22.3259255,21.5381451 22.3259255,24.6577967 L22.3259255,24.7848414 C22.3259255,28.1868144 20.01089,30.0219036 16.1007384,30.0219036 L8.06869415,30.0219036 L8.06869415,19.5054309 L16.2418991,19.5054309 L16.2418991,19.4913148 Z" id="path198"></path>
                </g>
            </g>
        </g>
    </g>
</svg>